<svg width="256" height="256" viewBox="0 0 256 256" fill="none" xmlns="http://www.w3.org/2000/svg">
  <rect width="256" height="256" rx="64" fill="#0F1020"/>
  <rect x="36" y="36" width="184" height="184" rx="36" fill="#151735" stroke="#2B2F67" stroke-width="4"/>
  <path d="M84 88H132C156.301 88 176 107.699 176 132V132C176 156.301 156.301 176 132 176H84V88Z" fill="#6B6BF0"/>
  <path d="M84 108H130C143.255 108 154 118.745 154 132V132C154 145.255 143.255 156 130 156H84V108Z" fill="#0F1020"/>
  <path d="M104 124H132C136.418 124 140 127.582 140 132V132C140 136.418 136.418 140 132 140H104V124Z" fill="#6B6BF0"/>
  <circle cx="182" cy="74" r="14" fill="#34D399"/>
  <path d="M176 74L180.5 78.5L188.5 69.5" stroke="#0F1020" stroke-width="4" stroke-linecap="round" stroke-linejoin="round"/>
</svg>
